<?xml version="1.0" encoding="UTF-8"?> <svg xmlns="http://www.w3.org/2000/svg" id="Warstwa_1" viewBox="0 0 344.81 100"><defs><style>.cls-1{fill:#48b870;}.cls-2{fill:#1c2152;fill-rule:evenodd;}</style></defs><path class="cls-1" d="m32.64,18.47C15.23,18.47,1.11,32.59,1.11,50s14.12,31.53,31.53,31.53,31.53-14.12,31.53-31.53-14.11-31.53-31.53-31.53Zm5.17,52.93l-26.57-26.57,2.47-2.47c1.57,1.56,3.63,2.34,5.68,2.3l18.58,18.6c-.02,2.05.75,4.11,2.32,5.68l-2.47,2.46h0Zm2.47-13.66c-.71.71-1.26,1.52-1.64,2.4l-16.15-16.13c.89-.37,1.7-.93,2.41-1.64.75-.75,1.32-1.62,1.7-2.54l16.21,16.21c-.93.38-1.79.95-2.54,1.7h0Zm11.22,0c-1.53-1.52-3.51-2.3-5.5-2.32l-18.78-18.76c0-1.99-.79-3.98-2.3-5.5l2.56-2.56,26.58,26.58-2.55,2.56h0Z"></path><path class="cls-2" d="m119.82,29.55c.96,2.4,1.45,5.21,1.45,8.36h0c0,3.15-.48,5.96-1.42,8.36-.94,2.41-2.26,4.45-3.91,6.09-1.65,1.63-3.65,2.88-5.92,3.71-2.26.82-4.78,1.23-7.3,1.23s-4.93-.42-7.17-1.23c-2.26-.83-4.26-2.07-5.94-3.7-1.68-1.63-3.03-3.68-3.99-6.09-.96-2.4-1.45-5.21-1.45-8.36s.51-5.96,1.5-8.36c1-2.4,2.36-4.46,4.06-6.11,1.7-1.65,3.7-2.9,5.94-3.72,2.23-.82,4.53-1.24,7.05-1.24s4.93.42,7.17,1.24c2.26.83,4.25,2.08,5.94,3.73,1.68,1.65,3.02,3.71,3.99,6.11Zm-10.66,16.31c.75-.94,1.33-2.09,1.74-3.41.41-1.34.62-2.87.62-4.55s-.21-3.22-.62-4.58c-.4-1.34-.99-2.49-1.74-3.43-.73-.92-1.66-1.65-2.74-2.15-1.09-.5-2.3-.76-3.71-.76s-2.65.26-3.72.78c-1.06.52-1.98,1.25-2.72,2.18-.75.94-1.33,2.1-1.74,3.43-.41,1.35-.62,2.84-.62,4.52s.2,3.21.61,4.55c.4,1.32.99,2.47,1.74,3.41.74.92,1.65,1.65,2.72,2.15,1.07.5,2.36.76,3.73.76s2.62-.25,3.71-.76c1.08-.5,2-1.23,2.74-2.15Zm33-26.98c5.46,0,9.73.99,12.7,2.94,3.06,2.01,4.61,5.28,4.61,9.83s-1.57,7.89-4.66,9.93c-3,1.98-7.31,2.99-12.8,2.99h-1.82v11.99h-9.5V19.94l.58-.11c1.78-.35,3.69-.59,5.67-.73,1.98-.14,3.74-.21,5.22-.21Zm-.16,17.37c2.66,0,4.66-.35,5.97-1.05h0c1.17-.63,1.74-1.81,1.74-3.61,0-.87-.15-1.59-.45-2.13-.3-.54-.72-.97-1.29-1.3-.59-.35-1.33-.6-2.2-.74-1.39-.22-3.12-.28-4.78-.18-.11,0-.22.01-.32.02-.16.01-.32.02-.47.03v8.96h1.82Zm23.69-8.64h10.8v28.95h9.5v-28.95h10.8v-8.31h-31.11v8.31Zm38.98-8.31h9.5v37.26h-9.5V19.3Zm60.6,27.45c-.19-3.19-.4-6.41-.62-9.6-.22-3.18-.49-6.28-.78-9.22-.29-2.94-.62-5.64-.96-8.02l-.09-.61h-8.39l-.2.37c-.63,1.15-1.36,2.58-2.17,4.25-.81,1.66-1.66,3.49-2.55,5.45-.88,1.95-1.77,3.96-2.63,5.99l-1.77,4.19-1.77-4.19c-.87-2.03-1.75-4.05-2.63-5.99-.88-1.95-1.74-3.78-2.55-5.45-.82-1.68-1.55-3.11-2.17-4.25l-.2-.37h-8.75l-.09.61c-.35,2.38-.67,5.08-.96,8.02-.29,2.94-.55,6.04-.78,9.22-.22,3.18-.43,6.41-.62,9.6-.19,3.21-.36,6.23-.49,9.05l-.03.75h9.31l.02-.7c.1-3.51.24-7.33.41-11.36.13-3.13.32-6.31.55-9.49.11.25.22.51.34.78l.02.05h0c.19.43.38.87.57,1.31.76,1.76,1.51,3.51,2.25,5.27.74,1.76,1.46,3.44,2.15,5.05.69,1.6,1.28,2.97,1.76,4.1l.18.44h6.58l.18-.44c.48-1.14,1.07-2.5,1.76-4.1.69-1.6,1.41-3.29,2.15-5.05.74-1.76,1.49-3.51,2.25-5.27.19-.45.38-.89.57-1.31h0s.02-.06.02-.06l.02-.04c.11-.25.21-.49.32-.74.23,3.19.42,6.37.55,9.49.17,4.1.31,7.92.41,11.36l.02.7h9.31l-.04-.75c-.14-2.83-.3-5.84-.49-9.05h0Zm37.03-11.13c1.16,2.88,2.35,6.01,3.56,9.27h0c1.21,3.25,2.5,6.86,3.85,10.71l.34.95h-10.17l-.16-.5c-.4-1.26-.83-2.54-1.28-3.82l-1.2-3.44h-12.97l-1.19,3.45c-.45,1.29-.87,2.57-1.26,3.81l-.16.5h-9.91l.33-.95c1.35-3.87,2.65-7.47,3.84-10.71,1.22-3.29,2.41-6.41,3.56-9.27,1.15-2.88,2.3-5.66,3.43-8.26,1.12-2.59,2.3-5.17,3.52-7.65l.19-.4h8.55l.19.41c1.17,2.48,2.34,5.05,3.49,7.64,1.15,2.62,2.31,5.4,3.46,8.27Zm-15.69,5.33c.44-1.19.88-2.35,1.31-3.46.55-1.42,1.05-2.71,1.49-3.89.44-1.17.84-2.2,1.18-3.1l.02-.04v-.03s.03-.05.04-.07c.01-.03.03-.07.04-.1l.03-.09s.02-.04.02-.06c.05.12.1.25.14.37h0s.08.2.08.2l.17.42.02.05h0c.28.73.6,1.54.95,2.43.46,1.18.95,2.48,1.46,3.87.28.77.57,1.57.86,2.39h0s0,0,0,0c.13.36.26.73.39,1.1h-8.2Zm55.81,7.25h-15.87v-28.9h-9.5v37.26h25.37v-8.36Zm-252.77,20.34h-4.36v-2.77h11.96v2.77h-4.35v11.67h-3.25v-11.67Zm31.68-2.77h-3.25v14.44h3.25v-14.44Zm31.23,11.58c.29-.08.54-.17.77-.26h0c.22-.1.42-.19.6-.27l.9,2.61c-.46.28-1.1.52-1.94.75-.83.22-1.79.34-2.89.34-2.35,0-4.13-.66-5.36-1.96-1.23-1.3-1.84-3.16-1.84-5.56,0-1.2.19-2.26.56-3.2.37-.93.89-1.73,1.54-2.37.65-.65,1.43-1.13,2.33-1.47.9-.34,1.88-.5,2.94-.5.61,0,1.17.04,1.67.14.5.09.94.19,1.31.31.37.12.69.24.94.36.25.13.43.22.54.29l-.94,2.63c-.44-.23-.96-.44-1.55-.6-.59-.17-1.26-.25-2.01-.25-.5,0-.99.08-1.47.25-.48.17-.9.44-1.27.8-.37.36-.66.84-.89,1.43-.22.58-.34,1.29-.34,2.12,0,.67.07,1.29.22,1.87.15.57.38,1.07.71,1.49.33.42.75.75,1.28.99.53.24,1.17.36,1.92.36.47,0,.89-.02,1.27-.08.37-.06.71-.12,1-.2Zm29.04-4.94c1.1-1.09,2.14-2.18,3.14-3.26.99-1.08,1.98-2.2,2.97-3.37h-3.86c-.73.82-1.53,1.72-2.39,2.67-.86.96-1.71,1.88-2.55,2.75v-5.43h-3.25v14.44h3.25v-6.11c.5.39,1,.84,1.5,1.35.5.51.98,1.04,1.44,1.59.46.55.88,1.1,1.28,1.65.4.54.74,1.05,1.04,1.52h3.87c-.99-1.59-2.02-3.05-3.1-4.37-1.07-1.32-2.19-2.47-3.34-3.43h0Zm36.08,1.59h-5.77v3.48h6.98v2.73h-10.23v-14.44h9.75v2.73h-6.5v2.83h5.77v2.67Zm21.1-5.46h4.36v11.67h3.25v-11.67h4.35v-2.77h-11.96v2.77Zm32.79-2.77h3.25v14.44h-3.25v-14.44Zm34.52,8.52c-.5-.75-1.04-1.53-1.6-2.34-.57-.81-1.14-1.59-1.72-2.35-.58-.76-1.14-1.47-1.7-2.13-.55-.67-1.06-1.23-1.52-1.69h-2.65v14.44h3.21v-9.46c1.22,1.43,2.37,2.95,3.46,4.56,1.08,1.61,2.09,3.24,3.02,4.9h2.73v-14.44h-3.23v8.52Zm33.66,3.31v-5.02h.02s3.25,0,3.25,0v7.15c-.39.16-1.02.32-1.88.49-.87.18-1.93.26-3.19.26-1.08,0-2.07-.17-2.95-.5-.89-.34-1.63-.82-2.26-1.46-.63-.64-1.11-1.42-1.45-2.35-.34-.93-.51-1.98-.51-3.19s.19-2.28.56-3.21c.37-.93.89-1.72,1.54-2.36.65-.65,1.42-1.13,2.3-1.47.89-.34,1.82-.5,2.83-.5.68,0,1.3.05,1.84.14.54.09,1.02.19,1.42.31.39.12.72.24.98.36.25.13.44.22.55.29l-.94,2.61c-.45-.23-.96-.44-1.53-.61-.58-.18-1.21-.26-1.89-.26-1.52,0-2.61.42-3.28,1.26-.68.84-1.01,1.99-1.01,3.45,0,.71.08,1.35.25,1.93.17.57.41,1.07.75,1.49.33.41.75.74,1.25.97.5.23,1.08.35,1.75.35.36,0,.67,0,.93-.02.26-.01.48-.04.68-.08Z"></path></svg> 