<?xml version="1.0" encoding="UTF-8"?> <svg xmlns="http://www.w3.org/2000/svg" id="Warstwa_1" data-name="Warstwa 1" viewBox="0 0 282.04 100"><defs><style> .cls-1 { fill: #384597; } .cls-2 { fill: none; } </style></defs><path class="cls-1" d="m251.26,48.14c-8.25,5.03-17.72,7.68-27.38,7.66-3.2,0-5.8-2.6-5.8-5.81,0-3.2,2.6-5.79,5.8-5.8,21.74-.03,39.67-17.05,40.84-38.76h11.84c-.84,17.55-10.31,33.54-25.3,42.7m25.02,46.66h-11.73c-1-16.24-11.39-30.4-26.58-36.21q.23,0,.47-.23c.23-.23.69-.23.92-.23s.47-.22.94-.22c.22,0,.69-.23.92-.23s.47-.23.92-.23c.35-.06.68-.22.94-.47.23,0,.45-.23.92-.23.23-.22.7-.22.92-.45s.47-.23.94-.23c.23-.23.69-.23.92-.47s.47-.23.7-.45.69-.23.92-.47.47-.23.7-.47.69-.23.92-.47.47-.22.69-.45.7-.23.94-.47c.13,0,.23-.11.23-.23,14.59,9.19,23.7,24.99,24.36,42.22m4.69-91.44V1.03h-20.64v2.33c-.03,20.1-16.32,36.39-36.42,36.43-5.6-.03-10.18,4.48-10.21,10.09,0,.04,0,.08,0,.13.05,5.62,4.59,10.16,10.21,10.21,20.11.03,36.4,16.33,36.43,36.43v2.33h20.64v-2.33c.01-18.67-9.08-36.18-24.36-46.91,15.33-10.45,24.46-27.83,24.36-46.38"></path><path class="cls-1" d="m133.36,33.52c-1.08-.2-2.18-.28-3.28-.23-3.48.01-6.87,1.06-9.74,3.02v-3.02h-7.46v32.73h7.43v-15.78c-.07-5.44,4.28-9.91,9.72-9.98.02,0,.03,0,.05,0,1.12-.02,2.24.21,3.25.69l.03-7.43Z"></path><path class="cls-1" d="m152.39,40.26c-5.51-.12-10.07,4.25-10.19,9.75-.12,5.51,4.25,10.07,9.75,10.19s10.07-4.25,10.19-9.75c0-.07,0-.14,0-.22.07-5.44-4.28-9.91-9.72-9.98-.01,0-.02,0-.03,0m16.95,9.74c0,9.36-7.57,16.96-16.93,16.97-9.36,0-16.96-7.57-16.97-16.93,0-9.36,7.57-16.96,16.93-16.97,0,0,.01,0,.02,0,9.33.05,16.89,7.6,16.95,16.93"></path><path class="cls-1" d="m91.36,40.26c-5.51-.13-10.08,4.23-10.21,9.74-.13,5.51,4.23,10.08,9.74,10.21,5.51.13,10.08-4.23,10.21-9.74,0-.08,0-.15,0-.23.07-5.44-4.28-9.91-9.72-9.98,0,0-.01,0-.02,0m16.93,9.74c0,9.36-7.57,16.96-16.93,16.97-9.36,0-16.96-7.57-16.97-16.93,0-9.36,7.57-16.96,16.93-16.97.01,0,.02,0,.03,0,9.33.06,16.87,7.61,16.93,16.93"></path><path class="cls-1" d="m18.94,44.67c7.91-4.35,13.13-12.36,13.92-21.36h-7.19c-1.12,9.12-8.13,16.4-17.2,17.87v-18.11H1.07v42.7h7.43v-17.87c9.07,1.47,16.08,8.76,17.2,17.87h7.19c-.78-8.93-6.01-16.87-13.92-21.11"></path><path class="cls-1" d="m185.58,66.95c3.41.02,6.72-1.22,9.27-3.49,1.86-1.93,2.87-4.52,2.8-7.19,0-6.74-5.35-8.13-10.68-9.76-2.78-.69-5.57-1.85-5.57-4.41.14-2.07,1.93-3.63,4-3.49.06,0,.12,0,.17.02,3.25,0,4.18,2.08,4.18,3.47h6.96c-.69-6.72-6.25-9.27-11.13-9.27-5.57,0-11.38,3.47-11.38,9.98,0,3.94,2.56,6.49,7.66,8.12l.47.23c5.8,2.1,8.12,2.78,8.12,5.57.05.94-.28,1.87-.92,2.56-1.01.93-2.34,1.43-3.71,1.39-2.49.02-4.63-1.74-5.11-4.18h-7.19c.47,5.1,3.94,10.45,12.07,10.45"></path><path class="cls-1" d="m69.31,47.9c.03-8.05-6.48-14.59-14.53-14.62-.03,0-.06,0-.09,0-1.99.03-3.96.42-5.8,1.17l-1.41.69v-12.07h-7.41v42.7h7.41v-18.56c.19-3.98,3.56-7.05,7.54-6.87,3.72.17,6.69,3.15,6.87,6.87v18.56h7.43v-17.87Z"></path><path class="cls-1" d="m204.14,36.77c.47-.24.7-.47.7-.7s-.23-.45-.23-.69-.47-.23-1.16-.23h-1.17v3.25h.7v-1.39h.23c.45,0,.69.23.69.47-.01.25.07.5.23.69h.7c0-.23-.23-.23-.23-.69s-.23-.47-.47-.7h0Zm-.92-.23h-.47v-.92h.47c.45,0,.69.23.69.45,0,.47-.23.47-.69.47Z"></path><path class="cls-1" d="m203.46,33.28c-1.93,0-3.49,1.55-3.5,3.47s1.55,3.49,3.47,3.5,3.49-1.55,3.5-3.47c0,0,0-.01,0-.02.03-1.89-1.47-3.45-3.36-3.49-.04,0-.07,0-.11,0Zm0,6.25c-1.54,0-2.78-1.25-2.78-2.78s1.25-2.78,2.78-2.78,2.78,1.25,2.78,2.78h0c-.15,1.47-1.31,2.64-2.78,2.8v-.02Z"></path><rect class="cls-2" x="-10.66" y="-8.64" width="303.35" height="117.28"></rect></svg> 