<?xml version="1.0" encoding="UTF-8"?> <svg xmlns="http://www.w3.org/2000/svg" id="Warstwa_1" data-name="Warstwa 1" viewBox="0 0 291.95 68.14"><defs><style> .cls-1 { fill: #010101; } </style></defs><path class="cls-1" d="m44.5,22.25h15v.86h-5.14l7.9,19.23,8.27-19.23h-5.08v-.86h9.37v.86h-3.31l-10.1,23.64c-.78,1.76-1.51,3.52-2.2,5.3-.69,1.78-1.39,3.56-2.08,5.36-.57,1.47-1.14,2.76-1.71,3.86-.57,1.1-1.17,2-1.8,2.7-.63.69-1.32,1.21-2.05,1.56-.73.35-1.59.52-2.57.52-1.19,0-2.13-.18-2.85-.55-.72-.37-1.28-.8-1.68-1.29-.41-.49-.67-1-.8-1.53-.12-.53-.18-.98-.18-1.35,0-1.02.29-1.78.86-2.3.57-.51,1.26-.77,2.08-.77.28,0,.59.03.92.09.33.06.63.17.92.34.29.16.53.39.73.67s.31.63.31,1.04c0,.57-.17,1.11-.52,1.62-.35.51-.52,1.07-.52,1.68,0,.53.14.88.43,1.04.28.16.67.25,1.16.25.65,0,1.26-.15,1.81-.46.55-.31,1.09-.81,1.62-1.5.53-.69,1.06-1.6,1.59-2.72.53-1.12,1.12-2.5,1.78-4.13l2.7-6.86-10.59-26.21h-4.23v-.86h0Z"></path><path class="cls-1" d="m90.66,4.37h9.98v43.29h4.71v.86h-9.86v-5.33h-.12c-.16.49-.41,1.08-.73,1.78-.33.69-.81,1.37-1.44,2.02-.63.65-1.43,1.21-2.39,1.68-.96.47-2.13.7-3.52.7-1.8,0-3.5-.39-5.11-1.16-1.61-.78-3.03-1.82-4.25-3.12-1.23-1.31-2.19-2.81-2.91-4.5-.71-1.69-1.07-3.48-1.07-5.36s.35-3.59,1.04-5.27c.69-1.67,1.63-3.13,2.82-4.38,1.18-1.24,2.55-2.24,4.1-3,1.55-.75,3.2-1.13,4.96-1.13,2.24,0,4.06.55,5.45,1.65,1.39,1.1,2.37,2.45,2.94,4.04h.12V5.23h-4.71v-.86h0Zm-10.59,30.13c0,2.12.06,4.05.18,5.79.12,1.74.43,3.22.92,4.44.49,1.23,1.22,2.16,2.2,2.82.98.65,2.31.98,3.98.98s3.09-.37,4.13-1.1c1.04-.73,1.85-1.68,2.42-2.85.57-1.16.96-2.46,1.16-3.89.21-1.43.31-2.82.31-4.16,0-1.59-.03-2.97-.09-4.13-.06-1.16-.17-2.19-.34-3.09-.16-.9-.39-1.67-.67-2.33-.29-.65-.63-1.26-1.04-1.84-.61-.82-1.41-1.49-2.39-2.02-.98-.53-2.22-.8-3.74-.8-1.43,0-2.6.29-3.52.86-.92.57-1.63,1.39-2.14,2.45-.51,1.06-.87,2.34-1.07,3.83-.21,1.49-.31,3.17-.31,5.05h0Z"></path><path class="cls-1" d="m107.2,47.66h4.71v-24.55h-4.71v-.86h9.86v6.18h.12c.16-.61.43-1.31.8-2.08.37-.78.88-1.52,1.53-2.24.65-.71,1.44-1.32,2.36-1.8.92-.49,2.03-.73,3.34-.73.94,0,1.76.15,2.45.46.69.31,1.26.7,1.71,1.16.45.47.78,1.01.98,1.62.2.61.31,1.23.31,1.84,0,1.35-.31,2.24-.92,2.7-.61.45-1.33.67-2.14.67-1.8,0-2.7-.57-2.7-1.71,0-.37.04-.66.12-.89.08-.23.17-.45.28-.67.1-.22.19-.48.27-.77.08-.28.12-.69.12-1.23,0-1.3-.71-1.96-2.14-1.96-.65,0-1.35.25-2.08.73-.73.49-1.42,1.21-2.05,2.14-.63.94-1.16,2.07-1.59,3.4-.43,1.33-.64,2.85-.64,4.56v14.02h5.33v.86h-15.31v-.86h0Z"></path><path class="cls-1" d="m158.2,47.85c-.53.41-1.17.77-1.9,1.07-.73.31-1.63.46-2.7.46-1.96,0-3.38-.42-4.26-1.26-.88-.84-1.48-2.01-1.8-3.52h-.12c-.16.37-.39.83-.67,1.38-.29.55-.73,1.08-1.32,1.59-.59.51-1.38.94-2.36,1.29-.98.35-2.22.52-3.73.52-1.71,0-3.08-.19-4.1-.58-1.02-.39-1.82-.87-2.39-1.44-.57-.57-.95-1.21-1.13-1.93s-.27-1.38-.27-1.99c0-1.43.28-2.57.86-3.43.57-.86,1.32-1.54,2.23-2.05.92-.51,1.94-.93,3.06-1.26,1.12-.33,2.26-.67,3.4-1.04,1.35-.45,2.46-.84,3.34-1.16.88-.33,1.56-.72,2.05-1.19.49-.47.83-1.06,1.01-1.78.19-.71.28-1.68.28-2.91,0-.98-.06-1.86-.18-2.63-.12-.78-.35-1.44-.67-1.99-.33-.55-.8-.97-1.41-1.26-.61-.29-1.43-.43-2.45-.43-1.35,0-2.46.23-3.34.7-.88.47-1.32,1.23-1.32,2.3,0,.69.06,1.38.19,2.05.12.67.18,1.17.18,1.5,0,.57-.21,1.05-.61,1.44-.41.39-1,.58-1.78.58-1.35,0-2.18-.25-2.51-.73s-.49-1.12-.49-1.9c0-.9.2-1.76.61-2.57.41-.82,1.01-1.54,1.81-2.17.8-.63,1.8-1.13,3-1.5,1.2-.37,2.58-.55,4.13-.55,1.88,0,3.45.23,4.71.7,1.26.47,2.28,1.1,3.06,1.9.78.8,1.32,1.69,1.65,2.7.33,1,.49,2.05.49,3.15v15.25c0,1.19.19,1.98.55,2.39.37.41.9.61,1.59.61.45,0,.92-.08,1.41-.25.49-.16.96-.41,1.41-.73l.49.67h0Zm-10.72-14.33h-.12c-.08.53-.75,1.06-2.02,1.59l-4.59,1.84c-1.31.53-2.31,1.28-3,2.24-.7.96-1.04,2.15-1.04,3.58,0,.61.06,1.24.18,1.9.12.65.35,1.23.67,1.74.33.51.79.93,1.38,1.26.59.33,1.36.49,2.3.49,1.35,0,2.44-.28,3.27-.86.84-.57,1.47-1.29,1.9-2.14.43-.86.71-1.78.86-2.79.14-1,.21-1.91.21-2.72v-6.12h0Z"></path><path class="cls-1" d="m.76,47.67h6.79V5.8H.76v-.86h19.71v.86h-6.79v20.02h20.38V5.8h-6.79v-.86h19.71v.86h-6.79v41.87h6.79v.86h-19.71v-.86h6.79v-21H13.68v21h6.79v.86H.76v-.86Z"></path><path class="cls-1" d="m204.64,47.85c-.53.41-1.16.77-1.9,1.07-.74.31-1.63.46-2.7.46-1.96,0-3.38-.42-4.26-1.26-.88-.84-1.48-2.01-1.8-3.52h-.12c-.16.37-.39.83-.67,1.38-.29.55-.73,1.08-1.32,1.59-.59.51-1.38.94-2.36,1.29-.98.35-2.22.52-3.73.52-1.72,0-3.08-.19-4.1-.58-1.02-.39-1.82-.87-2.39-1.44-.57-.57-.95-1.21-1.13-1.93s-.28-1.38-.28-1.99c0-1.43.28-2.57.86-3.43.57-.86,1.32-1.54,2.23-2.05.92-.51,1.94-.93,3.06-1.26,1.12-.33,2.25-.67,3.4-1.04,1.35-.45,2.46-.84,3.34-1.16.88-.33,1.56-.72,2.05-1.19.49-.47.82-1.06,1.01-1.78.19-.71.28-1.68.28-2.91,0-.98-.06-1.86-.18-2.63-.12-.78-.35-1.44-.67-1.99-.33-.55-.8-.97-1.41-1.26-.61-.29-1.43-.43-2.45-.43-1.35,0-2.46.23-3.34.7-.88.47-1.32,1.23-1.32,2.3,0,.69.06,1.38.19,2.05.12.67.18,1.17.18,1.5,0,.57-.21,1.05-.61,1.44-.41.39-1,.58-1.78.58-1.35,0-2.18-.25-2.51-.73-.33-.49-.49-1.12-.49-1.9,0-.9.2-1.76.61-2.57.41-.82,1.01-1.54,1.81-2.17.8-.63,1.8-1.13,3-1.5,1.2-.37,2.58-.55,4.13-.55,1.88,0,3.45.23,4.71.7,1.26.47,2.29,1.1,3.06,1.9.77.8,1.32,1.69,1.65,2.7.33,1,.49,2.05.49,3.15v15.25c0,1.19.19,1.98.55,2.39.37.41.9.61,1.59.61.45,0,.92-.08,1.41-.25.49-.16.96-.41,1.41-.73l.49.67h0Zm-10.71-14.33h-.12c-.08.53-.76,1.06-2.02,1.59l-4.59,1.84c-1.31.53-2.31,1.28-3,2.24-.7.96-1.04,2.15-1.04,3.58,0,.61.06,1.24.18,1.9.12.65.35,1.23.67,1.74.33.51.79.93,1.38,1.26.59.33,1.36.49,2.3.49,1.35,0,2.44-.28,3.27-.86.84-.57,1.47-1.29,1.9-2.14.43-.86.71-1.78.86-2.79.14-1,.21-1.91.21-2.72v-6.12h0Z"></path><path class="cls-1" d="m229.4,41.79c-.12.45-.36,1.09-.7,1.93-.35.84-.9,1.67-1.66,2.51-.75.84-1.78,1.57-3.06,2.2-1.28.63-2.95.95-4.99.95-1.55,0-3.16-.25-4.84-.73-1.67-.49-3.2-1.28-4.59-2.36-1.39-1.08-2.52-2.5-3.4-4.25-.88-1.76-1.32-3.92-1.32-6.49,0-2,.38-3.86,1.13-5.57.76-1.71,1.78-3.2,3.06-4.47,1.29-1.26,2.8-2.26,4.53-2.97,1.73-.71,3.58-1.07,5.54-1.07,1.1,0,2.23.13,3.4.4,1.16.27,2.22.67,3.18,1.23.96.55,1.75,1.27,2.39,2.14.63.88.95,1.95.95,3.22,0,.86-.28,1.56-.82,2.11-.55.55-1.34.83-2.36.83-.7,0-1.36-.15-1.99-.46-.63-.31-.95-.83-.95-1.56,0-.57.14-1.26.43-2.08.28-.82.43-1.49.43-2.02,0-.94-.47-1.66-1.41-2.17-.94-.51-2.02-.77-3.25-.77-.9,0-1.83.11-2.79.34-.96.23-1.84.79-2.63,1.68-.8.9-1.45,2.24-1.96,4.04-.51,1.8-.77,4.25-.77,7.35,0,1.76.11,3.41.34,4.96.22,1.55.63,2.91,1.22,4.07.59,1.16,1.41,2.08,2.45,2.76s2.4,1.01,4.07,1.01c1.8,0,3.27-.26,4.44-.8,1.16-.53,2.08-1.17,2.76-1.93.67-.75,1.17-1.52,1.5-2.3.33-.78.57-1.41.73-1.9l.92.18h0Z"></path><path class="cls-1" d="m231.53,47.66h4.71v-24.55h-4.71v-.86h9.98v25.41h4.71v.86h-14.7v-.86h0Z"></path><path class="cls-1" d="m275.23,47.85c-.53.41-1.17.77-1.9,1.07-.73.31-1.63.46-2.7.46-1.96,0-3.38-.42-4.26-1.26-.88-.84-1.48-2.01-1.8-3.52h-.12c-.16.37-.39.83-.67,1.38-.29.55-.73,1.08-1.32,1.59-.59.51-1.38.94-2.36,1.29-.98.35-2.22.52-3.73.52-1.71,0-3.08-.19-4.1-.58-1.02-.39-1.82-.87-2.39-1.44-.57-.57-.95-1.21-1.13-1.93-.18-.71-.27-1.38-.27-1.99,0-1.43.28-2.57.86-3.43.57-.86,1.32-1.54,2.23-2.05.92-.51,1.94-.93,3.06-1.26,1.12-.33,2.26-.67,3.4-1.04,1.35-.45,2.46-.84,3.34-1.16.88-.33,1.56-.72,2.05-1.19.49-.47.83-1.06,1.01-1.78.19-.71.28-1.68.28-2.91,0-.98-.06-1.86-.18-2.63-.12-.78-.35-1.44-.67-1.99-.33-.55-.8-.97-1.41-1.26-.61-.29-1.43-.43-2.45-.43-1.35,0-2.46.23-3.34.7-.88.47-1.32,1.23-1.32,2.3,0,.69.06,1.38.19,2.05.12.67.18,1.17.18,1.5,0,.57-.21,1.05-.61,1.44-.41.39-1,.58-1.78.58-1.35,0-2.18-.25-2.51-.73-.33-.49-.49-1.12-.49-1.9,0-.9.2-1.76.61-2.57.41-.82,1.01-1.54,1.81-2.17.8-.63,1.8-1.13,3-1.5,1.2-.37,2.58-.55,4.13-.55,1.88,0,3.45.23,4.71.7,1.26.47,2.28,1.1,3.06,1.9.78.8,1.32,1.69,1.65,2.7.33,1,.49,2.05.49,3.15v15.25c0,1.19.19,1.98.55,2.39.37.41.9.61,1.59.61.45,0,.92-.08,1.41-.25.49-.16.96-.41,1.41-.73l.49.67h0Zm-10.72-14.33h-.12c-.08.53-.75,1.06-2.02,1.59l-4.59,1.84c-1.31.53-2.31,1.28-3,2.24-.7.96-1.04,2.15-1.04,3.58,0,.61.06,1.24.18,1.9.12.65.35,1.23.67,1.74.33.51.79.93,1.38,1.26.59.33,1.36.49,2.3.49,1.35,0,2.44-.28,3.27-.86.84-.57,1.47-1.29,1.9-2.14.43-.86.71-1.78.86-2.79.14-1,.21-1.91.21-2.72v-6.12h0Z"></path><path class="cls-1" d="m276.04,47.66h4.71V5.23h-4.71v-.86h9.98v43.29h4.71v.86h-14.69v-.86Z"></path><path class="cls-1" d="m168.2,13.74c0-1.59.17-2.96.49-4.12.03-.11.09-.33.2-.63.29-.83.67-1.53,1.15-2.11.05-.06.11-.12.16-.18,1.12-1.36,4-2.53,6.88-1.96.1-.19.2-.36.3-.56-.71-.18-1.75-.38-2.86-.34-1.8.08-3.25.47-4.84,1.47-1.59,1-2.92,2.17-3.98,3.52-.41.49-.78,1.03-1.1,1.62-.33.59-.61,1.29-.86,2.08-.25.8-.44,1.71-.58,2.76-.14,1.04-.21,2.28-.21,3.7v3.24h-4.71v.86h4.71v24.55h-3.09v.86h13.93v-.86h-5.57v-24.55h7.59v-.86h-7.59v-8.51Z"></path><path class="cls-1" d="m183.94,10.09c0,1.76-1.42,3.18-3.18,3.18s-3.18-1.42-3.18-3.18c0-2.28,2.63-2.32,1.62-5.29,2.86.91,4.74,3.23,4.74,5.29h0Z"></path><path class="cls-1" d="m235.37,12c0-.9.32-1.67.95-2.3.64-.64,1.4-.95,2.3-.95s1.67.32,2.3.95c.64.64.95,1.4.95,2.3s-.32,1.67-.95,2.3c-.64.64-1.41.95-2.3.95s-1.67-.32-2.3-.95c-.64-.64-.95-1.4-.95-2.3Z"></path></svg> 