<?xml version="1.0" encoding="UTF-8"?> <svg xmlns="http://www.w3.org/2000/svg" xmlns:xlink="http://www.w3.org/1999/xlink" version="1.1" id="Warstwa_1" x="0px" y="0px" viewBox="0 0 222.2 50" style="enable-background:new 0 0 222.2 50;" xml:space="preserve"> <style type="text/css"> .st0{clip-path:url(#SVGID_00000080176560452892281070000003331495110251885201_);} .st1{fill:#4D0030;} </style> <g> <defs> <rect id="SVGID_1_" width="222.2" height="49.8"></rect> </defs> <clipPath id="SVGID_00000050648754647984594660000007758665220695239317_"> <use xlink:href="#SVGID_1_" style="overflow:visible;"></use> </clipPath> <g style="clip-path:url(#SVGID_00000050648754647984594660000007758665220695239317_);"> <path class="st1" d="M0,3v24.8c11.8,0,21.4-11.1,21.4-24.8H0z"></path> <path class="st1" d="M18.1,27.1c0,12.2,9.9,22.1,22.1,22.1V4.9C28,4.9,18.1,14.8,18.1,27.1z"></path> <path class="st1" d="M58.7,19.6c0,4.6,2.3,5.9,5.6,5.9c1,0,2-0.2,2.6-0.4v-3c-0.6,0.2-1.2,0.3-2,0.3c-1.9,0-2.8-0.9-2.8-3v-8.1 h4.8V8.4H62h-2.6c1.9-0.4,3.3-2.2,3.3-4.5h-4v4.5h-0.1l-2.7,0.5v2.5h2.7L58.7,19.6L58.7,19.6z"></path> <path class="st1" d="M80,11.8V8.2c-0.3-0.1-0.7-0.1-1.1-0.1c-2.6,0-4.6,1.2-5.8,3.4v-3h-3.4v16.8h3.4v-8.4c0-3.4,1.9-5.2,5.1-5.2 C78.9,11.5,79.5,11.6,80,11.8z"></path> <path class="st1" d="M94.9,25.1V13.4c0-3.9-3.4-5.4-7-5.4c-3.7,0-7.2,1.6-7.2,6h3.5c0-2.2,1.5-3.3,3.7-3.3c2,0,3.6,0.9,3.6,2.6 c0,3.8-11.3,0.2-11.3,7.4c0,3.3,2.7,4.8,5.7,4.8c2.4,0,4.6-0.9,5.7-3.2v2.8H94.9z M86.6,22.7c-1.7,0-2.9-0.7-2.9-2.1 c0-2.8,5.1-2.1,7.9-3.5v1.2C91.6,21.1,89.2,22.7,86.6,22.7z"></path> <path class="st1" d="M104,22.5L99.4,8.4h-3.5l5.7,16.8h4.7L112,8.4h-3.5L104,22.5z"></path> <path class="st1" d="M135.1,0l-3.4,0.5v24.6h3.4V0z"></path> <path class="st1" d="M83.1,32.4c-4.9,0-8.5,3.6-8.5,8.7c0,5.1,3.6,8.7,8.5,8.7s8.5-3.6,8.5-8.7C91.6,36,88,32.4,83.1,32.4z M83.1,46.7c-2.9,0-5.1-2.2-5.1-5.6s2.2-5.6,5.1-5.6c2.9,0,5.1,2.2,5.1,5.6C88.3,44.5,86,46.7,83.1,46.7z"></path> <path class="st1" d="M105.1,41.8c0,3.4-1.5,5.1-4,5.1c-2.5,0-4-1.7-4-5.1v-9.1h-3.4v9.7c0,5,2.7,7.3,6.3,7.3c2.2,0,4-1,5-3v2.7 h3.4V32.7h-3.4V41.8z"></path> <path class="st1" d="M120.5,32.4c-2.2,0-4.1,1-5.1,3v-2.6h-3.4v16.8h3.4v-9.2c0-3.3,1.5-5,4.1-5c2.5,0,4.1,1.7,4.1,5v9.2h3.4v-9.8 C126.9,34.7,124.2,32.4,120.5,32.4z"></path> <path class="st1" d="M133.4,37.2c0-1.3,1.2-2.1,3-2.1c1.9,0,3.4,1.2,3.4,2.8h3.5c0-3.1-2.9-5.5-6.9-5.5c-3.6,0-6.4,1.9-6.4,4.9 c0,6.7,10.2,3.5,10.2,7.6c0,1.5-1.2,2.3-3.3,2.3c-2.1,0-3.8-1-3.8-3.1h-3.5c0,3.6,3.1,5.7,7.2,5.7c3.9,0,6.7-1.9,6.7-5.1 C143.6,37.9,133.4,40.9,133.4,37.2z"></path> <path class="st1" d="M153.6,32.4c-4.8,0-8.2,3.6-8.2,8.7c0,5.1,3.5,8.7,8.2,8.7c3.9,0,6.8-1.9,7.8-5.4h-3.6 c-0.7,1.5-2,2.4-4.1,2.4c-2.8,0-4.7-1.7-5.1-4.6h13.1c0-0.4,0.1-0.7,0.1-1.1C161.8,35.9,158.4,32.4,153.6,32.4z M148.7,39.8 c0.4-2.8,2.2-4.5,4.9-4.5c2.7,0,4.5,1.7,4.9,4.5H148.7z"></path> <path class="st1" d="M120.9,8c-4.8,0-8.2,3.6-8.2,8.7s3.5,8.7,8.2,8.7c3.9,0,6.8-1.9,7.8-5.4h-3.6c-0.7,1.5-2,2.4-4.1,2.4 c-2.8,0-4.7-1.7-5.1-4.6h13.1c0-0.4,0.1-0.7,0.1-1.1C129.2,11.6,125.7,8,120.9,8z M116,15.5c0.4-2.8,2.2-4.5,4.9-4.5 c2.7,0,4.5,1.7,4.9,4.5H116z"></path> <path class="st1" d="M171.9,49.5h3.4V24.3l-3.4,0.5V49.5z"></path> <path class="st1" d="M164.6,49.5h3.3V24.3l-3.3,0.5V49.5z"></path> <path class="st1" d="M186.2,32.4c-4.9,0-8.5,3.6-8.5,8.7c0,5.1,3.6,8.7,8.5,8.7s8.5-3.6,8.5-8.7C194.7,36,191.1,32.4,186.2,32.4z M186.2,46.7c-2.9,0-5.1-2.2-5.1-5.6s2.2-5.6,5.1-5.6c2.9,0,5.1,2.2,5.1,5.6S189.2,46.7,186.2,46.7z"></path> <path class="st1" d="M200.1,35.7v-3h-3.4v16.8h3.4V41c0-3.5,1.9-5.2,5.1-5.2c0.7,0,1.3,0.1,1.8,0.3v-3.6c-0.3-0.1-0.7-0.1-1.1-0.1 C203.4,32.4,201.3,33.5,200.1,35.7z"></path> <path class="st1" d="M212,37.2c0-1.3,1.2-2.1,3-2.1c1.9,0,3.4,1.2,3.4,2.8h3.5c0-3.1-2.9-5.5-6.9-5.5c-3.6,0-6.4,1.9-6.4,4.9 c0,6.7,10.2,3.5,10.2,7.6c0,1.5-1.2,2.3-3.3,2.3c-2.1,0-3.8-1-3.8-3.1h-3.5c0,3.6,3.1,5.7,7.2,5.7c3.9,0,6.7-1.9,6.7-5.1 C222.2,37.9,212,40.9,212,37.2z"></path> <path class="st1" d="M64.8,46.7c-2.8,0-5-2.2-5-5.6s2.1-5.6,5-5.6c2.4,0,4.4,1.4,4.8,3.9l3.2-1.3c-0.9-3.4-4.1-5.6-8-5.6 c-4.8,0-8.3,3.6-8.3,8.7c0,5.1,3.5,8.7,8.3,8.7c4,0,7.2-2.3,8.1-5.9l-3.3-1.4C69.3,45.3,67.2,46.7,64.8,46.7z"></path> </g> </g> </svg> 