<svg width="28" height="28" viewBox="0 0 28 28" fill="none" xmlns="http://www.w3.org/2000/svg">
<path d="M11.5155 13.3104C11.5155 13.3104 13.9565 13.1249 13.9565 10.2041C13.9565 7.28572 12.301 5.84708 9.77047 5.84708L1.10156 5.83337V21.9616H9.97207C9.97207 21.9616 14.4073 22.1019 14.4073 17.1231C14.4073 17.1231 14.7331 13.3104 11.5155 13.3104ZM4.3272 8.2526H8.76246C8.76246 8.2526 10.2801 8.2776 10.2801 10.2452C10.2801 12.2847 8.76246 12.2847 8.76246 12.2847H4.3272V8.2526ZM9.16566 19.5423H4.3272V14.7039H9.16566C9.16566 14.7039 11.5849 14.7289 11.5849 17.1231C11.5849 19.5173 9.51403 19.5423 9.16566 19.5423Z" fill="#dcac40"/>
<path d="M21.262 9.8656C15.2035 9.8656 15.214 15.9137 15.214 15.9137C15.214 15.9137 14.8108 21.9617 21.262 21.9617C21.262 21.9617 26.9069 21.9617 26.9069 17.1233H23.6813C23.6813 17.1233 23.6813 19.5425 21.262 19.5425C21.262 19.5425 18.8428 19.5425 18.8428 16.3169C18.8428 16.3169 25.2941 16.3169 26.9069 16.3169C26.9069 14.7041 26.9069 9.8656 21.262 9.8656ZM18.8428 14.7041C18.8428 14.7041 18.7896 12.2848 21.262 12.2848C23.7337 12.2848 23.6813 14.7041 23.6813 14.7041H18.8428Z" fill="#dcac40"/>
<path d="M24.4879 7.44629H18.0366V9.05911H24.4879V7.44629Z" fill="#dcac40"/>
</svg>
