<svg width="28" height="28" viewBox="0 0 28 28" fill="none" xmlns="http://www.w3.org/2000/svg">
<path d="M26.624 6.02266C25.7999 6.3773 24.9336 6.62426 24.0464 6.75742C24.4612 6.68631 25.0715 5.9397 25.3144 5.6375C25.6835 5.18166 25.9648 4.66128 26.144 4.1028C26.144 4.06132 26.1855 4.00207 26.144 3.97244C26.1231 3.96103 26.0997 3.95505 26.0759 3.95505C26.0521 3.95505 26.0286 3.96103 26.0077 3.97244C25.0444 4.49413 24.0191 4.8923 22.9561 5.15754C22.9191 5.16885 22.8796 5.16987 22.842 5.16048C22.8045 5.15108 22.7701 5.13163 22.7428 5.10421C22.66 5.00568 22.571 4.91265 22.4761 4.82571C22.0426 4.43726 21.5507 4.11934 21.0185 3.88356C20.3 3.58881 19.524 3.46116 18.749 3.51025C17.997 3.55774 17.2628 3.75944 16.5921 4.1028C15.9317 4.4648 15.3512 4.95659 14.8856 5.54862C14.3958 6.15797 14.0423 6.86513 13.8486 7.62254C13.689 8.34299 13.6709 9.08761 13.7953 9.81497C13.7953 9.9394 13.7953 9.95718 13.6886 9.9394C9.46377 9.31723 5.99736 7.81808 3.16498 4.60054C3.04055 4.45833 2.97537 4.45833 2.87463 4.60054C1.64213 6.47299 2.24061 9.43574 3.78123 10.8993C3.98863 11.0949 4.20194 11.2845 4.42711 11.4623C3.72074 11.4121 3.03163 11.2207 2.4006 10.8993C2.28209 10.8223 2.21691 10.8638 2.21098 11.006C2.19418 11.2031 2.19418 11.4014 2.21098 11.5985C2.33462 12.5434 2.70699 13.4385 3.29001 14.1923C3.87303 14.946 4.64579 15.5314 5.52925 15.8886C5.74462 15.9808 5.96903 16.0503 6.19883 16.096C5.54491 16.2247 4.87423 16.2447 4.21379 16.1552C4.07158 16.1256 4.01825 16.2026 4.07158 16.3389C4.94263 18.7091 6.83286 19.432 8.21942 19.835C8.40904 19.8646 8.59865 19.8646 8.81197 19.912C8.81197 19.912 8.81197 19.912 8.77642 19.9475C8.36756 20.6942 6.71435 21.1978 5.95589 21.4585C4.5715 21.9558 3.09548 22.1459 1.63028 22.0155C1.39919 21.98 1.34586 21.9859 1.2866 22.0155C1.22735 22.0452 1.2866 22.1103 1.35178 22.1696C1.64806 22.3651 1.94433 22.537 2.25246 22.7029C3.16975 23.2032 4.13951 23.6007 5.14409 23.888C10.3467 25.322 16.201 24.2672 20.1059 20.386C23.1753 17.3403 24.2538 13.1392 24.2538 8.93207C24.2538 8.77208 24.4493 8.67727 24.5619 8.59432C25.3384 7.98926 26.0231 7.27471 26.5943 6.47299C26.6933 6.35349 26.744 6.20133 26.7366 6.04636C26.7366 5.95748 26.7366 5.97525 26.624 6.02266Z" fill="#dcac40"/>
</svg>
