<svg width="28" height="28" viewBox="0 0 28 28" fill="none" xmlns="http://www.w3.org/2000/svg">
<path d="M10.1102 14C10.1102 11.8523 11.8518 10.1108 14.0008 10.1108C16.1498 10.1108 17.8923 11.8523 17.8923 14C17.8923 16.1477 16.1498 17.8892 14.0008 17.8892C11.8518 17.8892 10.1102 16.1477 10.1102 14ZM8.00651 14C8.00651 17.3087 10.6901 19.9907 14.0008 19.9907C17.3114 19.9907 19.9951 17.3087 19.9951 14C19.9951 10.6914 17.3114 8.00933 14.0008 8.00933C10.6901 8.00933 8.00651 10.6914 8.00651 14ZM18.8315 7.7718C18.8314 8.04869 18.9135 8.3194 19.0673 8.54969C19.2211 8.77998 19.4398 8.95951 19.6958 9.06557C19.9517 9.17164 20.2333 9.19947 20.5051 9.14556C20.7769 9.09165 21.0265 8.95842 21.2225 8.7627C21.4185 8.56699 21.552 8.31758 21.6062 8.04603C21.6603 7.77448 21.6327 7.49298 21.5268 7.23712C21.4208 6.98126 21.2414 6.76254 21.0111 6.60862C20.7808 6.45469 20.51 6.37247 20.2329 6.37236H20.2324C19.861 6.37254 19.5049 6.52001 19.2422 6.78241C18.9795 7.0448 18.8318 7.40065 18.8315 7.7718ZM9.28463 23.4964C8.1465 23.4446 7.52789 23.2551 7.11679 23.095C6.57177 22.883 6.1829 22.6304 5.77405 22.2224C5.36519 21.8143 5.1121 21.4261 4.90086 20.8814C4.7406 20.4707 4.55102 19.8523 4.49928 18.7148C4.44269 17.4851 4.43139 17.1157 4.43139 14.0001C4.43139 10.8846 4.44362 10.5162 4.49928 9.28538C4.55112 8.14793 4.7421 7.53072 4.90086 7.11884C5.11304 6.57415 5.36575 6.18551 5.77405 5.7769C6.18234 5.36829 6.57084 5.11535 7.11679 4.90423C7.52771 4.74407 8.1465 4.55461 9.28463 4.5029C10.5151 4.44634 10.8848 4.43505 14.0008 4.43505C17.1168 4.43505 17.4868 4.44727 18.7183 4.5029C19.8565 4.5547 20.474 4.74557 20.8862 4.90423C21.4312 5.11535 21.8201 5.36885 22.2289 5.7769C22.6378 6.18495 22.8899 6.57415 23.1021 7.11884C23.2624 7.52951 23.4519 8.14793 23.5037 9.28538C23.5603 10.5162 23.5716 10.8846 23.5716 14.0001C23.5716 17.1157 23.5603 17.484 23.5037 18.7148C23.4518 19.8523 23.2613 20.4705 23.1021 20.8814C22.8899 21.4261 22.6372 21.8147 22.2289 22.2224C21.8206 22.6301 21.4312 22.883 20.8862 23.095C20.4753 23.2552 19.8565 23.4447 18.7183 23.4964C17.4878 23.5529 17.1182 23.5642 14.0008 23.5642C10.8834 23.5642 10.5148 23.5529 9.28463 23.4964ZM9.18798 2.40403C7.94525 2.46059 7.09606 2.65752 6.35446 2.94592C5.58643 3.24374 4.93625 3.6433 4.28654 4.2916C3.63684 4.93989 3.23807 5.5907 2.94006 6.35827C2.65149 7.09989 2.45444 7.94811 2.39784 9.19009C2.34032 10.434 2.32715 10.8317 2.32715 14C2.32715 17.1683 2.34032 17.566 2.39784 18.8099C2.45444 20.052 2.65149 20.9001 2.94006 21.6417C3.23807 22.4089 3.63693 23.0604 4.28654 23.7084C4.93616 24.3564 5.58643 24.7554 6.35446 25.0541C7.09746 25.3425 7.94525 25.5394 9.18798 25.596C10.4333 25.6525 10.8306 25.6666 14.0008 25.6666C17.171 25.6666 17.5689 25.6535 18.8136 25.596C20.0564 25.5394 20.905 25.3425 21.6471 25.0541C22.4147 24.7554 23.0653 24.3567 23.715 23.7084C24.3647 23.0601 24.7627 22.4089 25.0615 21.6417C25.3501 20.9001 25.5481 20.0519 25.6037 18.8099C25.6603 17.5651 25.6735 17.1683 25.6735 14C25.6735 10.8317 25.6603 10.434 25.6037 9.19009C25.5471 7.94801 25.3501 7.09943 25.0615 6.35827C24.7627 5.59117 24.3637 4.94091 23.715 4.2916C23.0663 3.64228 22.4147 3.24374 21.648 2.94592C20.905 2.65752 20.0563 2.45965 18.8145 2.40403C17.5698 2.34747 17.1719 2.33337 14.0017 2.33337C10.8315 2.33337 10.4333 2.34653 9.18798 2.40403Z" fill="#dcac40"/>
<path d="M10.1102 14C10.1102 11.8523 11.8518 10.1108 14.0008 10.1108C16.1498 10.1108 17.8923 11.8523 17.8923 14C17.8923 16.1477 16.1498 17.8892 14.0008 17.8892C11.8518 17.8892 10.1102 16.1477 10.1102 14ZM8.00651 14C8.00651 17.3087 10.6901 19.9907 14.0008 19.9907C17.3114 19.9907 19.9951 17.3087 19.9951 14C19.9951 10.6914 17.3114 8.00933 14.0008 8.00933C10.6901 8.00933 8.00651 10.6914 8.00651 14ZM18.8315 7.7718C18.8314 8.04869 18.9135 8.3194 19.0673 8.54969C19.2211 8.77998 19.4398 8.95951 19.6958 9.06557C19.9517 9.17164 20.2333 9.19947 20.5051 9.14556C20.7769 9.09165 21.0265 8.95842 21.2225 8.7627C21.4185 8.56699 21.552 8.31758 21.6062 8.04603C21.6603 7.77448 21.6327 7.49298 21.5268 7.23712C21.4208 6.98126 21.2414 6.76254 21.0111 6.60862C20.7808 6.45469 20.51 6.37247 20.2329 6.37236H20.2324C19.861 6.37254 19.5049 6.52001 19.2422 6.78241C18.9795 7.0448 18.8318 7.40065 18.8315 7.7718ZM9.28463 23.4964C8.1465 23.4446 7.52789 23.2551 7.11679 23.095C6.57177 22.883 6.1829 22.6304 5.77405 22.2224C5.36519 21.8143 5.1121 21.4261 4.90086 20.8814C4.7406 20.4707 4.55102 19.8523 4.49928 18.7148C4.44269 17.4851 4.43139 17.1157 4.43139 14.0001C4.43139 10.8846 4.44362 10.5162 4.49928 9.28538C4.55112 8.14793 4.7421 7.53072 4.90086 7.11884C5.11304 6.57415 5.36575 6.18551 5.77405 5.7769C6.18234 5.36829 6.57084 5.11535 7.11679 4.90423C7.52771 4.74407 8.1465 4.55461 9.28463 4.5029C10.5151 4.44634 10.8848 4.43505 14.0008 4.43505C17.1168 4.43505 17.4868 4.44727 18.7183 4.5029C19.8565 4.5547 20.474 4.74557 20.8862 4.90423C21.4312 5.11535 21.8201 5.36885 22.2289 5.7769C22.6378 6.18495 22.8899 6.57415 23.1021 7.11884C23.2624 7.52951 23.4519 8.14793 23.5037 9.28538C23.5603 10.5162 23.5716 10.8846 23.5716 14.0001C23.5716 17.1157 23.5603 17.484 23.5037 18.7148C23.4518 19.8523 23.2613 20.4705 23.1021 20.8814C22.8899 21.4261 22.6372 21.8147 22.2289 22.2224C21.8206 22.6301 21.4312 22.883 20.8862 23.095C20.4753 23.2552 19.8565 23.4447 18.7183 23.4964C17.4878 23.5529 17.1182 23.5642 14.0008 23.5642C10.8834 23.5642 10.5148 23.5529 9.28463 23.4964ZM9.18798 2.40403C7.94525 2.46059 7.09606 2.65752 6.35446 2.94592C5.58643 3.24374 4.93625 3.6433 4.28654 4.2916C3.63684 4.93989 3.23807 5.5907 2.94006 6.35827C2.65149 7.09989 2.45444 7.94811 2.39784 9.19009C2.34032 10.434 2.32715 10.8317 2.32715 14C2.32715 17.1683 2.34032 17.566 2.39784 18.8099C2.45444 20.052 2.65149 20.9001 2.94006 21.6417C3.23807 22.4089 3.63693 23.0604 4.28654 23.7084C4.93616 24.3564 5.58643 24.7554 6.35446 25.0541C7.09746 25.3425 7.94525 25.5394 9.18798 25.596C10.4333 25.6525 10.8306 25.6666 14.0008 25.6666C17.171 25.6666 17.5689 25.6535 18.8136 25.596C20.0564 25.5394 20.905 25.3425 21.6471 25.0541C22.4147 24.7554 23.0653 24.3567 23.715 23.7084C24.3647 23.0601 24.7627 22.4089 25.0615 21.6417C25.3501 20.9001 25.5481 20.0519 25.6037 18.8099C25.6603 17.5651 25.6735 17.1683 25.6735 14C25.6735 10.8317 25.6603 10.434 25.6037 9.19009C25.5471 7.94801 25.3501 7.09943 25.0615 6.35827C24.7627 5.59117 24.3637 4.94091 23.715 4.2916C23.0663 3.64228 22.4147 3.24374 21.648 2.94592C20.905 2.65752 20.0563 2.45965 18.8145 2.40403C17.5698 2.34747 17.1719 2.33337 14.0017 2.33337C10.8315 2.33337 10.4333 2.34653 9.18798 2.40403Z" fill="#dcac40"/>
</svg>
