<svg width="30" height="28" viewBox="0 0 30 28" fill="none" xmlns="http://www.w3.org/2000/svg">
<path d="M14.4944 2.02002C21.1194 2.02002 26.4796 7.38021 26.4796 13.9951C26.4796 20.6101 21.1194 25.9803 14.4944 25.9803C7.86947 25.9803 2.50928 20.6201 2.50928 14.0052C2.50928 7.39025 7.86947 2.02002 14.4944 2.02002Z" fill="transpen"/>
<path d="M14.4954 26.8334C7.40868 26.8334 1.64697 21.0818 1.64697 14.0051C1.64697 6.91842 7.40868 1.16675 14.4954 1.16675C21.5821 1.16675 27.3438 6.91842 27.3438 13.9951C27.3438 21.0717 21.5821 26.8334 14.4954 26.8334ZM25.3262 15.7517C24.9548 15.6312 21.9334 14.7379 18.4904 15.2799C19.9258 19.2147 20.508 22.4268 20.6184 23.0893C23.0877 21.4331 24.8444 18.8032 25.3262 15.7517ZM18.7815 24.1032C18.6209 23.1395 17.9785 19.7869 16.4427 15.7918C16.4226 15.8019 16.3925 15.8119 16.3724 15.8119C10.1791 17.97 7.96076 22.2562 7.76 22.6577C9.617 24.1032 11.9558 24.9664 14.4954 24.9664C16.0111 24.9764 17.4666 24.6653 18.7815 24.1032ZM6.34467 21.3428C6.59561 20.9212 9.60696 15.9424 15.2683 14.1055C15.4088 14.0553 15.5594 14.0152 15.6999 13.975C15.4289 13.3527 15.1278 12.7303 14.8065 12.118C9.3259 13.7542 4.00586 13.6839 3.52404 13.6739C3.52404 13.7843 3.51401 13.8947 3.51401 14.0051C3.52404 16.8257 4.58805 19.3954 6.34467 21.3428ZM3.75491 11.7667C4.24677 11.7767 8.76378 11.7968 13.9031 10.4317C12.0863 7.19947 10.1189 4.48926 9.83783 4.09779C6.75622 5.54323 4.4676 8.3739 3.75491 11.7667ZM11.9257 3.35499C12.2268 3.7565 14.2244 6.46671 16.0211 9.76915C19.9258 8.30363 21.572 6.09531 21.7728 5.81426C19.8355 4.09779 17.2859 3.05386 14.4954 3.05386C13.612 3.05386 12.7488 3.16427 11.9257 3.35499ZM22.9874 7.07902C22.7565 7.39019 20.9196 9.74908 16.8643 11.4053C17.1152 11.9273 17.3662 12.4593 17.5971 12.9913C17.6774 13.182 17.7577 13.3727 17.838 13.5534C21.4917 13.0917 25.1154 13.8345 25.4767 13.9047C25.4466 11.325 24.5232 8.94605 22.9874 7.07902Z" fill="#dcac40"/>
</svg>
